<?xml version="1.0" encoding="iso-8859-1"?>
<!-- Generator: Adobe Illustrator 19.0.0, SVG Export Plug-In . SVG Version: 6.00 Build 0)  -->
<svg version="1.1" id="Capa_1" xmlns="http://www.w3.org/2000/svg" xmlns:xlink="http://www.w3.org/1999/xlink" x="0px" y="0px"
	 viewBox="0 0 512 512" style="enable-background:new 0 0 512 512;" xml:space="preserve">
<g>
	<g>
		<g>
			<path d="M373.331,192c29.419,0,53.333-23.936,53.333-53.333c0-5.888-4.779-10.667-10.667-10.667
				c-29.419,0-53.333,23.936-53.333,53.333C362.665,187.221,367.443,192,373.331,192z"/>
			<path d="M467.646,323.115c-1.685-2.645-4.459-4.416-7.573-4.821c-15.211-2.027-26.688-14.507-26.688-29.035
				c0-12.693,8.619-23.915,21.483-27.883c3.2-0.981,5.781-3.435,6.891-6.592c1.131-3.157,0.704-6.677-1.152-9.472
				c-12.437-18.816-32.299-31.957-48.299-31.957c-10.709,0-20.352,3.136-28.885,5.888c-6.592,2.133-12.821,4.139-17.941,4.139
				c-5.141,0-11.349-2.027-17.941-4.16c-8.491-2.773-18.155-5.888-28.864-5.888c-24.96,0-62.677,32.277-62.677,80.939
				c0,45.867,35.115,111.061,67.883,111.061c15.68,0,25.259-4.139,32.256-7.147c8.832-3.819,9.941-3.797,18.731,0
				c6.976,3.029,16.555,7.147,32.256,7.147c24.512,0,50.667-37.291,61.76-73.344C469.779,329.003,469.331,325.76,467.646,323.115z"
				/>
			<path d="M358.462,425.088c-2.667-2.027-6.123-2.688-9.301-1.792c-8.32,2.283-16.363,3.371-25.301,3.371
				c-27.328,0-48.085-23.872-58.027-38.101c-0.149-0.213-0.405-0.299-0.576-0.512c-0.704-0.875-1.536-1.579-2.496-2.197
				c-0.384-0.256-0.704-0.555-1.109-0.747c-1.387-0.661-2.923-1.109-4.565-1.109H63.998V106.667h277.333v18.816
				c0,5.888,4.779,10.667,10.667,10.667c5.888,0,10.667-4.779,10.667-10.667V53.333C362.665,23.936,338.75,0,309.331,0H95.998
				C66.579,0,42.665,23.936,42.665,53.333v405.333c0,29.397,23.915,53.333,53.333,53.333h213.333
				c29.419,0,53.333-23.936,53.333-53.333v-25.088C362.665,430.251,361.107,427.115,358.462,425.088z M288.211,42.667h0.213
				c5.888,0,10.667,4.779,10.667,10.667S294.313,64,288.425,64c-5.888,0-10.773-4.779-10.773-10.667S282.323,42.667,288.211,42.667z
				 M181.331,42.667h42.667c5.888,0,10.667,4.779,10.667,10.667S229.886,64,223.998,64h-42.667c-5.888,0-10.667-4.779-10.667-10.667
				S175.443,42.667,181.331,42.667z M202.665,469.333c-11.776,0-21.333-9.579-21.333-21.333c0-11.755,9.557-21.333,21.333-21.333
				s21.333,9.579,21.333,21.333C223.998,459.755,214.441,469.333,202.665,469.333z"/>
		</g>
	</g>
</g>
<g>
</g>
<g>
</g>
<g>
</g>
<g>
</g>
<g>
</g>
<g>
</g>
<g>
</g>
<g>
</g>
<g>
</g>
<g>
</g>
<g>
</g>
<g>
</g>
<g>
</g>
<g>
</g>
<g>
</g>
</svg>
