<?xml version="1.0"?>
<svg xmlns="http://www.w3.org/2000/svg" xmlns:xlink="http://www.w3.org/1999/xlink" xmlns:svgjs="http://svgjs.com/svgjs" version="1.1" width="512" height="512" x="0" y="0" viewBox="0 0 511.999 511.999" style="enable-background:new 0 0 512 512" xml:space="preserve"><g>
<g xmlns="http://www.w3.org/2000/svg">
	<g>
		<path d="M141.651,227.068h-12.628c-1.104,0-2,0.896-2,2v5.976c0,1.105,0.896,2,2,2h12.628c1.104,0,2-0.895,2-2v-5.976    C143.651,227.964,142.755,227.068,141.651,227.068z" fill="#ffffff" data-original="#000000" style=""/>
	</g>
</g>
<g xmlns="http://www.w3.org/2000/svg">
	<g>
		<path d="M141.651,243.031h-12.628c-1.104,0-2,0.896-2,2v37.902c0,1.104,0.896,2,2,2h12.628c1.104,0,2-0.896,2-2v-37.902    C143.651,243.926,142.755,243.031,141.651,243.031z" fill="#ffffff" data-original="#000000" style=""/>
	</g>
</g>
<g xmlns="http://www.w3.org/2000/svg">
	<g>
		<path d="M230.615,239.58v-5.523c0-1.105-0.896-2-2-2h-12.628c-1.105,0-2,0.895-2,2v5.523h-7.789c-1.105,0-2,0.896-2,2v2.817    c0,1.105,0.895,2,2,2h7.789v36.535c0,1.105,0.895,2,2,2h12.628c1.104,0,2-0.896,2-2v-36.535h7.831c1.105,0,2-0.895,2-2    C240.447,238.525,240.817,239.58,230.615,239.58z" fill="#ffffff" data-original="#000000" style=""/>
	</g>
</g>
<g xmlns="http://www.w3.org/2000/svg">
	<g>
		<path d="M113.882,227.068h-12.628c-1.104,0-2,0.896-2,2v36.549l-25.512-37.671c-0.372-0.549-0.992-0.878-1.656-0.878H58.521    c-1.104,0-2,0.896-2,2v53.864c0,1.104,0.896,2,2,2h12.628c1.104,0,2-0.896,2-2v-36.535c27.327,40.339,25.651,38.535,27.167,38.535    h13.567c1.104,0,2-0.896,2-2v-53.864C115.882,227.964,114.986,227.068,113.882,227.068z" fill="#ffffff" data-original="#000000" style=""/>
	</g>
</g>
<g xmlns="http://www.w3.org/2000/svg">
	<g>
		<path d="M185.541,242.989c-0.783-0.033-0.489-0.073-1.591-0.073c-3.138,0-9.132,0.723-14.028,5.566    c0-6.828,1.307-5.451-14.628-5.451c-1.105,0-2,0.896-2,2v37.902c0,1.104,0.895,2,2,2h12.628c1.105,0,2-0.896,2-2v-26.048    c2.401-7.409,17.127-10.543,17.127,5.433v20.613c0,1.105,0.896,2,2,2h12.628c1.105,0,2-0.896,2-2v-20.613    C203.677,253.27,198.404,243.01,185.541,242.989z" fill="#ffffff" data-original="#000000" style=""/>
	</g>
</g>
<g xmlns="http://www.w3.org/2000/svg">
	<g>
		<path d="M340.084,247.668c-3.091-3.096-7.288-4.67-12.477-4.679l-0.072-0.003c-0.104-0.012-0.662-0.07-1.519-0.07    c-3.138,0-9.133,0.723-14.028,5.566v-3.451c0-1.104-0.896-2-2-2H297.36c-1.104,0-2,0.896-2,2v37.902c0,1.104,0.896,2,2,2h12.628    c1.104,0,2-0.896,2-2v-26.048c0.672-2.07,3.377-5.984,8.813-5.984c7.233,0,8.314,7.153,8.314,11.419v20.613    c0,1.104,0.895,1.999,2,1.999h12.627c1.104,0,2-0.896,2-2v-20.613C345.742,261.952,345.678,253.272,340.084,247.668z" fill="#ffffff" data-original="#000000" style=""/>
	</g>
</g>
<g xmlns="http://www.w3.org/2000/svg">
	<g>
		<path d="M430.984,243.031c-13.511,0-24.503,9.398-24.503,20.95c0,11.553,10.992,20.951,24.503,20.951    c13.507,0,24.495-9.399,24.495-20.951C455.48,252.428,444.491,243.031,430.984,243.031z M438.741,273.715    c-0.131,0.188-0.23,0.4-0.291,0.632c-0.935,3.546-3.936,5.929-7.469,5.929s-6.535-2.383-7.468-5.929    c-0.059-0.222-0.152-0.427-0.275-0.608l-0.016-17.904c0-4.492,3.48-8.148,7.76-8.148c4.279,0,7.76,3.655,7.76,8.148V273.715z" fill="#ffffff" data-original="#000000" style=""/>
	</g>
</g>
<g xmlns="http://www.w3.org/2000/svg">
	<g>
		<path d="M289.303,261.734c-1.333-10.662-11.804-18.702-24.354-18.702c-13.511,0-24.503,9.399-24.503,20.95    c0.001,21.134,32.911,28.984,45.591,10.619c0.423-0.612,0.471-1.407,0.125-2.065c-0.346-0.659-1.027-1.071-1.77-1.071h-9.687    c-1.104,0-2,0.896-2,2v0.251c-0.131,0.188-0.23,0.4-0.291,0.632c-0.934,3.546-3.935,5.929-7.468,5.929s-6.535-2.383-7.469-5.929    c-0.059-0.222-0.152-0.426-0.275-0.608l-0.016-9.758c32.175,0,30.75,0.324,31.634-0.676    C289.198,262.875,289.375,262.303,289.303,261.734z M272.705,258.493h-15.519v-2.659h-0.001c0-4.492,3.481-8.148,7.76-8.148    c4.278,0,7.759,3.655,7.759,8.148V258.493z" fill="#ffffff" data-original="#000000" style=""/>
	</g>
</g>
<g xmlns="http://www.w3.org/2000/svg">
	<g>
		<path d="M397.554,227.068h-12.628c-1.104,0-2,0.896-2,2v17.878c-3.39-2.561-7.371-3.915-11.516-3.915    c-10.934,0-19.828,9.399-19.828,20.95c0,11.553,8.896,20.951,19.828,20.951c4.143,0,8.126-1.354,11.516-3.916v1.916    c0,1.105,0.896,2,2,2h12.628c1.104,0,2-0.896,2-2v-53.864C399.554,227.964,398.658,227.068,397.554,227.068z M382.981,271.554    c-0.13,0.187-0.23,0.4-0.29,0.63c-0.935,3.547-3.936,5.93-7.468,5.93c-3.534,0-6.536-2.383-7.469-5.93    c-0.059-0.222-0.152-0.427-0.275-0.608l-0.016-13.581c0-4.492,3.48-8.147,7.76-8.147c4.277,0,7.758,3.655,7.758,8.147V271.554z" fill="#ffffff" data-original="#000000" style=""/>
	</g>
</g>
<g xmlns="http://www.w3.org/2000/svg">
	<g>
		<path d="M454.04,198.039h-5.528c-4.143,0-7.5,3.358-7.5,7.5c0,4.142,3.357,7.5,7.5,7.5h5.528c23.687,0,42.959,19.271,42.959,42.96    c0,23.688-19.272,42.96-42.959,42.96h-180.54c-4.143,0-7.5,3.358-7.5,7.5s3.357,7.5,7.5,7.5h180.539    c31.959,0,57.96-26.002,57.96-57.961C511.999,224.041,485.999,198.039,454.04,198.039z" fill="#ffffff" data-original="#000000" style=""/>
	</g>
</g>
<g xmlns="http://www.w3.org/2000/svg">
	<g>
		<path d="M413.509,198.039H57.96C26.001,198.039,0,224.041,0,256s26.001,57.96,57.96,57.96h180.539c4.142,0,7.5-3.358,7.5-7.5    c0-4.142-3.358-7.5-7.5-7.5H57.96c-23.687,0-42.959-19.271-42.959-42.96c0-23.688,19.271-42.96,42.959-42.96h355.549    c4.142,0,7.5-3.358,7.5-7.5C421.01,201.397,417.651,198.039,413.509,198.039z" fill="#ffffff" data-original="#000000" style=""/>
	</g>
</g>
<g xmlns="http://www.w3.org/2000/svg">
</g>
<g xmlns="http://www.w3.org/2000/svg">
</g>
<g xmlns="http://www.w3.org/2000/svg">
</g>
<g xmlns="http://www.w3.org/2000/svg">
</g>
<g xmlns="http://www.w3.org/2000/svg">
</g>
<g xmlns="http://www.w3.org/2000/svg">
</g>
<g xmlns="http://www.w3.org/2000/svg">
</g>
<g xmlns="http://www.w3.org/2000/svg">
</g>
<g xmlns="http://www.w3.org/2000/svg">
</g>
<g xmlns="http://www.w3.org/2000/svg">
</g>
<g xmlns="http://www.w3.org/2000/svg">
</g>
<g xmlns="http://www.w3.org/2000/svg">
</g>
<g xmlns="http://www.w3.org/2000/svg">
</g>
<g xmlns="http://www.w3.org/2000/svg">
</g>
<g xmlns="http://www.w3.org/2000/svg">
</g>
</g></svg>
