<?xml version="1.0" encoding="iso-8859-1"?>
<!-- Generator: Adobe Illustrator 19.0.0, SVG Export Plug-In . SVG Version: 6.00 Build 0)  -->
<svg version="1.1" id="Capa_1" xmlns="http://www.w3.org/2000/svg" xmlns:xlink="http://www.w3.org/1999/xlink" x="0px" y="0px"
	 viewBox="0 0 512 512" style="enable-background:new 0 0 512 512;" xml:space="preserve">
<g>
	<g>
		<path d="M422,166H90c-49.626,0-90,40.374-90,90c0,49.626,40.374,90,90,90h332c49.626,0,90-40.374,90-90
			C512,206.374,471.626,166,422,166z M422,316H90c-33.084,0-60-26.916-60-60s26.916-60,60-60h332c33.084,0,60,26.916,60,60
			S455.084,316,422,316z"/>
	</g>
</g>
<g>
	<g>
		<polygon points="89.186,225.236 89.186,264.114 60.116,225.236 45.987,225.236 45.987,288.233 61.017,288.233 61.017,249.445 
			89.995,288.233 104.125,288.233 104.125,225.236 		"/>
	</g>
</g>
<g>
	<g>
		<rect x="108.12" y="225.24" width="16.02" height="62.997"/>
	</g>
</g>
<g>
	<g>
		<polygon points="247.893,275.633 247.893,262.944 277.951,262.944 277.951,250.344 247.893,250.344 247.893,237.834 
			281.191,237.834 281.191,225.236 171.343,225.236 171.343,264.114 142.273,225.236 128.145,225.236 128.145,288.233 
			143.174,288.233 143.174,249.445 172.152,288.233 186.282,288.233 186.282,238.105 201.023,238.105 201.023,288.233 
			217.043,288.233 217.043,238.105 231.873,238.105 231.873,288.233 282.181,288.233 282.181,275.633 		"/>
	</g>
</g>
<g>
	<g>
		<polygon points="329.379,225.236 329.379,264.114 300.31,225.236 286.181,225.236 286.181,288.233 301.21,288.233 301.21,249.445 
			330.188,288.233 344.318,288.233 344.318,225.236 		"/>
	</g>
</g>
<g>
	<g>
		<path d="M437.904,224.786c-14.578,0-26.423,7.642-31.435,19.208c-4.756-11.536-16.18-18.757-31.062-18.757h-27.089v62.997h26.459
			c15.211,0,26.815-7.262,31.648-18.773c4.986,11.739,16.856,19.583,31.479,19.583c19.529,0,34.108-13.949,34.108-32.309
			C472.013,238.464,457.434,224.786,437.904,224.786z M375.768,275.454h-11.43v-37.438h10.709c10.17,0,17.55,7.649,17.55,18.809
			C392.597,267.894,385.577,275.454,375.768,275.454z M438.084,275.633c-9.63,0-17.819-8.189-17.819-18.81
			c0-10.619,8.1-18.629,17.819-18.629s17.459,8.01,17.459,18.629C455.543,267.444,447.804,275.633,438.084,275.633z"/>
	</g>
</g>
<g>
</g>
<g>
</g>
<g>
</g>
<g>
</g>
<g>
</g>
<g>
</g>
<g>
</g>
<g>
</g>
<g>
</g>
<g>
</g>
<g>
</g>
<g>
</g>
<g>
</g>
<g>
</g>
<g>
</g>
</svg>
